HIERARCHY
ROOT Hips
{
	OFFSET 0.00000 0.00000 0.00000
	CHANNELS 6 Xposition Yposition Zposition Zrotation Yrotation Xrotation 
	JOINT LHipJoint
	{
		OFFSET 0 0 0
		CHANNELS 3 Zrotation Yrotation Xrotation
		JOINT LeftHip
		{
			OFFSET 3.13874 -1.57224 1.49786
			CHANNELS 3 Zrotation Yrotation Xrotation
			JOINT LeftKnee
			{
				OFFSET 2.10955 -5.79594 0.00000
				CHANNELS 3 Zrotation Yrotation Xrotation
				JOINT LeftAnkle
				{
					OFFSET 2.41843 -6.64458 0.00000
					CHANNELS 3 Zrotation Yrotation Xrotation
					JOINT LeftToe
					{
						OFFSET 0.04713 -0.12948 1.66229
						CHANNELS 3 Zrotation Yrotation Xrotation
						End Site
						{
							OFFSET 0.00000 -0.00000 0.85167
						}
					}
				}
			}
		}
	}
	JOINT RHipJoint
	{
		OFFSET 0 0 0
		CHANNELS 3 Zrotation Yrotation Xrotation
		JOINT RightHip
		{
			OFFSET -3.13988 -1.57224 1.49786
			CHANNELS 3 Zrotation Yrotation Xrotation
			JOINT RightKnee
			{
				OFFSET -2.15006 -5.90725 0.00000
				CHANNELS 3 Zrotation Yrotation Xrotation
				JOINT RightAnkle
				{
					OFFSET -2.34496 -6.44273 0.00000
					CHANNELS 3 Zrotation Yrotation Xrotation
					JOINT RightToe
					{
						OFFSET -0.08699 -0.23900 1.55223
						CHANNELS 3 Zrotation Yrotation Xrotation
						End Site
						{
							OFFSET -0.00000 -0.00000 0.80281
						}
					}
				}
			}
		}
	}
	JOINT lowerback
	{
		OFFSET 0 0 0
		CHANNELS 3 Zrotation Yrotation Xrotation
		JOINT Chest
		{
			OFFSET 0.01292 1.96517 -0.16495
			CHANNELS 3 Zrotation Yrotation Xrotation
			JOINT Chest2
			{
				OFFSET 0.02122 1.88666 0.19706
				CHANNELS 3 Zrotation Yrotation Xrotation
				JOINT lowerneck
				{
					OFFSET 0 0 0
					CHANNELS 3 Zrotation Yrotation Xrotation
					JOINT Neck
					{
						OFFSET -0.01683 1.81591 0.07903
						CHANNELS 3 Zrotation Yrotation Xrotation
						JOINT Head
						{
							OFFSET 0.00815 1.74013 -0.47700
							CHANNELS 3 Zrotation Yrotation Xrotation
							End Site
							{
								OFFSET -0.00204 1.83225 -0.16933
							}
						}
					}
				}
				JOINT LeftCollar
				{
					OFFSET 0 0 0
					CHANNELS 3 Zrotation Yrotation Xrotation
					JOINT LeftShoulder
					{
						OFFSET 3.38482 1.41533 0.19802
CHANNELS 3 Zrotation Xrotation Yrotation
						JOINT LeftElbow
						{
OFFSET 0 -4.327120 0.000000
CHANNELS 3 Zrotation Xrotation Yrotation
							JOINT LeftWrist
							{
OFFSET 0 -3.285870 -0.000000
CHANNELS 3 Zrotation Xrotation Yrotation
								JOINT lhand
								{
									OFFSET 0 0 0
CHANNELS 3 Zrotation Xrotation Yrotation
									JOINT LFingers
									{
OFFSET 0 -0.433160 -0.000000
CHANNELS 3 Zrotation Xrotation Yrotation
										End Site
										{
OFFSET 0 -0.349220 -0.000000
										}
									}
								}
								JOINT LThumb
								{
OFFSET 0 0.000000 0.000000
CHANNELS 3 Zrotation Xrotation Yrotation
									End Site
									{
OFFSET 0 -0.354560 0.354560
									}
								}
							}
						}
					}
				}
				JOINT RightCollar
				{
					OFFSET 0 0 0
					CHANNELS 3 Zrotation Yrotation Xrotation
					JOINT RightShoulder
					{
						OFFSET -3.09725 1.62858 -0.14144
CHANNELS 3 Zrotation Xrotation Yrotation
						JOINT RightElbow
						{
OFFSET 0 -4.291040 0.000000
CHANNELS 3 Zrotation Xrotation Yrotation
							JOINT RightWrist
							{
OFFSET 0 -3.227200 -0.000000
CHANNELS 3 Zrotation Xrotation Yrotation
								JOINT rhand
								{
									OFFSET 0 0 0
CHANNELS 3 Zrotation Xrotation Yrotation
									JOINT RFingers
									{
OFFSET 0 -0.543620 -0.000000
CHANNELS 3 Zrotation Xrotation Yrotation
										End Site
										{
OFFSET 0 -0.438280 -0.000000
										}
									}
								}
								JOINT RThumb
								{
OFFSET 0 0.000000 0.000000
CHANNELS 3 Zrotation Xrotation Yrotation
									End Site
									{
OFFSET 0 -0.444970 0.444970
									}
								}
							}
						}
					}
				}
			}
		}
	}
}
MOTION
Frames: 7
Frame Time: 0.008333333333333333
-14.578400 16.212200 2.827000 -177.170000 -3.335800 -170.564000 0.000000 0.000000 0.000000 -32.306900 -31.839100 14.628600 0.020200 -0.916600 -2.519300 3.163600 -1.287700 -33.389600 4.370700 -12.638000 -38.028000 0.000000 0.000000 0.000000 40.450300 30.848200 20.517200 -0.322600 3.650800 -10.096300 -2.929000 -24.827600 -47.932100 -0.576600 -4.862700 13.517300 3.521300 2.804800 4.941300 1.233000 3.447500 -10.723800 -1.080500 0.927600 -14.403600 1.157300 1.578400 -18.880100 -4.057000 1.092900 34.878100 -1.974000 -0.875600 15.470100 -0.000000 -0.000000 0.000000 9.569700 19.447800 -30.671300 21.636900 -32.564200 6.389300 30.992100 17.509100 -28.849300 0.000000 0.000000 0.000000 -7.125000 0.000000 0.000000 0.363000 62.704900 -0.156100 -0.000000 -0.000000 0.000000 -18.360100 17.238200 51.599600 -17.976100 -28.126500 -4.538000 -27.250900 8.941300 18.625700 0.000000 0.000000 0.000000 7.125000 0.000000 -0.000000 0.916600 50.739900 -0.129600
-14.586568 16.203151 2.850013 -177.223533 -3.432773 -170.516850 0.000000 0.000000 0.000000 -32.423716 -32.103340 14.413524 0.016896 -0.839498 -2.307388 3.240135 -4.450975 -33.105307 3.017507 -10.720392 -31.345696 0.000000 0.000000 0.000000 40.059028 30.776084 20.300652 -0.341353 3.754248 -10.386301 -2.566970 -25.743190 -47.415425 -0.458431 -4.339153 12.033456 3.642176 2.797025 5.120517 1.195500 3.466751 -10.710493 -1.200259 0.922109 -14.492242 1.569660 1.621455 -18.837910 -4.547412 1.231747 34.592399 -2.214167 -0.812907 15.337420 0.000000 0.000000 0.000000 9.454819 19.375244 -30.452014 21.626152 -32.551857 6.383572 30.927364 17.675829 -28.870739 0.000000 0.000000 0.000000 -7.125000 0.000000 0.000000 0.272978 62.710519 -0.117445 0.000000 0.000000 0.000000 -18.502858 17.022344 51.661367 -18.084547 -28.265213 -4.589223 -27.396910 8.715728 18.220356 0.000000 0.000000 0.000000 7.125000 0.000000 0.000000 0.692406 50.321307 -0.090717
-14.580310 16.199434 2.867073 -177.232167 -3.511080 -170.486065 0.000000 0.000000 0.000000 -32.358363 -32.163042 14.194225 0.014342 -0.773638 -2.126218 3.194011 -3.023507 -33.143500 3.614908 -11.614494 -34.400854 0.000000 0.000000 0.000000 40.043643 30.800202 20.102777 -0.324676 3.662431 -10.128854 -3.030509 -24.476478 -48.009290 -0.637577 -5.096566 14.186977 3.607341 2.788904 5.248554 1.202839 3.469173 -10.680720 -1.179504 0.930944 -14.540909 1.834237 1.667530 -18.814279 -4.818226 1.335451 34.398811 -2.345651 -0.758573 15.249663 0.000000 0.000000 0.000000 9.330543 19.100434 -30.208203 21.329527 -32.210666 6.224817 31.042540 17.954963 -29.023088 0.000000 0.000000 0.000000 -7.125000 0.000000 0.000000 0.356467 62.905692 -0.155246 0.000000 0.000000 0.000000 -18.391244 16.636317 51.564830 -18.104594 -28.290854 -4.598702 -27.490885 9.199557 18.877837 0.000000 0.000000 0.000000 7.125000 0.000000 0.000000 0.727114 51.057714 -0.111028
-14.563113 16.200443 2.878780 -177.174077 -3.535550 -170.510706 0.000000 0.000000 0.000000 -32.215340 -32.277206 14.183865 0.012370 -0.718025 -1.973362 3.166409 -1.303386 -33.400390 4.422054 -12.701089 -38.260811 0.000000 0.000000 0.000000 40.176490 30.820179 20.054188 -0.317795 3.623482 -10.019755 -3.393154 -23.453820 -48.485081 -0.810373 -5.742029 16.038459 3.492470 2.797588 5.367793 1.247106 3.491735 -10.619076 -1.076864 0.964043 -14.551773 1.723428 1.668804 -18.858850 -4.624253 1.317079 34.400231 -2.246292 -0.748529 15.256441 0.000000 0.000000 0.000000 9.369065 18.878012 -30.266475 20.973011 -31.796510 6.035851 31.286006 18.085267 -29.138037 0.000000 0.000000 0.000000 -7.125000 0.000000 0.000000 0.617734 63.095847 -0.271324 0.000000 0.000000 0.000000 -18.263140 16.357215 51.415953 -18.224348 -28.443454 -4.655592 -27.300288 9.765810 19.733913 0.000000 0.000000 0.000000 7.125000 0.000000 0.000000 1.096713 51.959377 -0.189126
-14.545342 16.204296 2.890182 -177.076835 -3.458022 -170.548536 0.000000 0.000000 0.000000 -32.138255 -32.525815 14.391717 0.012279 -0.714054 -1.962438 3.238253 -1.064549 -33.850963 4.549030 -12.857199 -38.836271 0.000000 0.000000 0.000000 40.339117 30.958516 19.969835 -0.312167 3.591716 -9.930883 -3.039834 -24.461631 -48.034481 -0.649333 -5.134342 14.296391 3.386458 2.833861 5.496593 1.286476 3.553990 -10.547428 -0.991960 1.015382 -14.554355 1.669382 1.654959 -18.963557 -4.447349 1.247747 34.504232 -2.179572 -0.761035 15.324817 0.000000 0.000000 0.000000 9.492682 18.766104 -30.320402 20.648546 -31.415381 5.865829 31.067073 18.113386 -29.214237 0.000000 0.000000 0.000000 -7.125000 0.000000 0.000000 0.308650 63.117853 -0.135607 0.000000 0.000000 0.000000 -18.219550 16.206643 51.344306 -18.284099 -28.519374 -4.684091 -27.489773 9.280053 19.047144 0.000000 0.000000 0.000000 7.125000 0.000000 0.000000 0.759797 51.243559 -0.117414
-14.528083 16.208916 2.903405 -176.994614 -3.377381 -170.543586 0.000000 0.000000 0.000000 -31.992896 -32.673985 14.483956 0.013953 -0.761796 -2.093571 3.300492 -1.121322 -34.167618 4.481298 -12.774488 -38.530450 0.000000 0.000000 0.000000 40.511372 31.123953 19.875934 -0.300686 3.525177 -9.744593 -2.917551 -24.797913 -47.875297 -0.592376 -4.905688 13.644106 3.281756 2.868363 5.603352 1.308016 3.609300 -10.482839 -0.925291 1.061481 -14.550575 1.605296 1.644889 -19.046660 -4.263713 1.184032 34.597972 -2.106565 -0.771522 15.383664 0.000000 0.000000 0.000000 9.557782 18.643376 -30.200438 20.302884 -31.004989 5.686792 30.105155 18.079914 -29.639280 0.000000 0.000000 0.000000 -7.125000 0.000000 0.000000 -1.097465 63.308319 0.491893 0.000000 0.000000 0.000000 -18.234019 16.057767 51.403262 -18.353407 -28.607277 -4.717251 -27.582212 8.924207 18.720944 0.000000 0.000000 0.000000 7.125000 0.000000 0.000000 0.601442 50.902808 -0.087469
-14.514430 16.215178 2.916873 -177.048324 -3.388285 -170.463469 0.000000 0.000000 0.000000 -31.895656 -32.773555 14.366474 0.015364 -0.800222 -2.199275 3.313692 -1.206138 -34.214999 4.362935 -12.627845 -37.991507 0.000000 0.000000 0.000000 40.516179 31.220677 19.715298 -0.281129 3.409620 -9.421373 -3.541228 -22.994092 -48.673953 -0.885096 -5.970609 16.706914 3.132275 2.880539 5.654065 1.260635 3.614507 -10.448605 -0.899019 1.082268 -14.547002 1.521573 1.617612 -19.022874 -4.110689 1.116813 34.601152 -2.038399 -0.787326 15.374223 0.000000 0.000000 0.000000 9.583540 18.480731 -29.963263 19.907341 -30.529915 5.484562 29.862349 18.521006 -29.990636 0.000000 0.000000 0.000000 -7.125000 0.000000 0.000000 -1.563537 63.616780 0.705002 0.000000 0.000000 0.000000 -18.198971 15.944806 51.465062 -18.416906 -28.687663 -4.747644 -27.620358 8.754789 18.712096 0.000000 0.000000 0.000000 7.125000 0.000000 0.000000 0.561233 50.899868 -0.081585
